<svg width="36" height="37" viewBox="0 0 36 37" fill="none" xmlns="http://www.w3.org/2000/svg">
<path opacity="0.2" d="M31.5 11.5625V28.9063C31.5 29.2129 31.3815 29.507 31.1705 29.7238C30.9595 29.9407 30.6734 30.0625 30.375 30.0625H5.625C5.32663 30.0625 5.04048 29.9407 4.82951 29.7238C4.61853 29.507 4.5 29.2129 4.5 28.9063V11.5625C4.5 11.2558 4.61853 10.9617 4.82951 10.7449C5.04048 10.5281 5.32663 10.4062 5.625 10.4062H30.375C30.6734 10.4062 30.9595 10.5281 31.1705 10.7449C31.3815 10.9617 31.5 11.2558 31.5 11.5625Z" fill="black"/>
<path d="M30.375 9.25H24.75C24.75 7.41006 24.0388 5.64548 22.773 4.34445C21.5071 3.04341 19.7902 2.3125 18 2.3125C16.2098 2.3125 14.4929 3.04341 13.227 4.34445C11.9612 5.64548 11.25 7.41006 11.25 9.25H5.625C5.02826 9.25 4.45597 9.49364 4.03401 9.92732C3.61205 10.361 3.375 10.9492 3.375 11.5625V28.9062C3.375 29.5196 3.61205 30.1078 4.03401 30.5414C4.45597 30.9751 5.02826 31.2188 5.625 31.2188H30.375C30.9717 31.2188 31.544 30.9751 31.966 30.5414C32.3879 30.1078 32.625 29.5196 32.625 28.9062V11.5625C32.625 10.9492 32.3879 10.361 31.966 9.92732C31.544 9.49364 30.9717 9.25 30.375 9.25ZM18 4.625C19.1935 4.625 20.3381 5.11228 21.182 5.97963C22.0259 6.84699 22.5 8.02337 22.5 9.25H13.5C13.5 8.02337 13.9741 6.84699 14.818 5.97963C15.6619 5.11228 16.8065 4.625 18 4.625ZM30.375 28.9062H5.625V11.5625H11.25V13.875C11.25 14.1817 11.3685 14.4758 11.5795 14.6926C11.7905 14.9094 12.0766 15.0312 12.375 15.0312C12.6734 15.0312 12.9595 14.9094 13.1705 14.6926C13.3815 14.4758 13.5 14.1817 13.5 13.875V11.5625H22.5V13.875C22.5 14.1817 22.6185 14.4758 22.8295 14.6926C23.0405 14.9094 23.3266 15.0312 23.625 15.0312C23.9234 15.0312 24.2095 14.9094 24.4205 14.6926C24.6315 14.4758 24.75 14.1817 24.75 13.875V11.5625H30.375V28.9062Z" fill="black"/>
</svg>
