<svg width="32" height="32" viewBox="0 0 32 32" fill="none" xmlns="http://www.w3.org/2000/svg">
<path d="M1 27.25C1 25.2609 1.79018 23.3532 3.1967 21.9467C4.60322 20.5402 6.51088 19.75 8.5 19.75H23.5C25.4891 19.75 27.3968 20.5402 28.8033 21.9467C30.2098 23.3532 31 25.2609 31 27.25C31 28.2446 30.6049 29.1984 29.9016 29.9016C29.1984 30.6049 28.2446 31 27.25 31H4.75C3.75544 31 2.80161 30.6049 2.09835 29.9016C1.39509 29.1984 1 28.2446 1 27.25Z" stroke="black" stroke-width="2" stroke-linejoin="round"/>
<path d="M16 12.25C19.1066 12.25 21.625 9.7316 21.625 6.625C21.625 3.5184 19.1066 1 16 1C12.8934 1 10.375 3.5184 10.375 6.625C10.375 9.7316 12.8934 12.25 16 12.25Z" stroke="black" stroke-width="2"/>
</svg>
