<svg width="14" height="8" viewBox="0 0 14 8" fill="none" xmlns="http://www.w3.org/2000/svg">
<path fill-rule="evenodd" clip-rule="evenodd" d="M5.94691 0.2704C6.13472 0.0972631 6.38942 0 6.655 0C6.92057 0 7.17528 0.0972631 7.36309 0.2704L13.0289 5.49487C13.2113 5.66905 13.3122 5.90234 13.31 6.14448C13.3077 6.38663 13.2023 6.61827 13.0167 6.7895C12.831 6.96073 12.5798 7.05786 12.3172 7.05997C12.0546 7.06207 11.8016 6.96898 11.6127 6.80075L6.655 2.22923L1.69734 6.80075C1.50844 6.96898 1.25545 7.06207 0.992845 7.05997C0.730242 7.05786 0.479042 6.96073 0.293347 6.7895C0.107651 6.61827 0.00231981 6.38663 3.78612e-05 6.14448C-0.00224409 5.90234 0.0987063 5.66905 0.281146 5.49487L5.94691 0.2704Z" fill="black"/>
</svg>
